# xmcd
# Copyright (C) 1995-1998 Ti Kan
#
# Track frame offsets:
#       150
#       17383
#       34941
#       56618
#       78008
#       95454
#       111170
#       126245
#       142766
#       167491
#       187960
#       208375
#
# Disc length: 3117 seconds
#
# Revision: 0
# Processed by: cddbd v1.5.2PL0 Copyright (c) Steve Scherf et al.
# Submitted via: CD-Import v1.0
#
DISCID=950c2b0c
DTITLE=Message Of The Blues - Message Of The Blues
DYEAR=2009
DGENRE=
TTITLE0=La
TTITLE1=Roalina
TTITLE2=Bump City
TTITLE3=Stare
TTITLE4=No Rock'n'roll
TTITLE5=Nutcraka
TTITLE6=Did You Like That
TTITLE7=High
TTITLE8=M.o.b.
TTITLE9=While My Woman Sleeps
TTITLE10=Holy Rollin'
TTITLE11=Night Porch
EXTD=
EXTT0=
EXTT1=
EXTT2=
EXTT3=
EXTT4=
EXTT5=
EXTT6=
EXTT7=
EXTT8=
EXTT9=
EXTT10=
EXTT11=
PLAYORDER=
